<mxfile host="app.diagrams.net" agent="Mozilla/5.0 (Windows NT 10.0; Win64; x64; rv:135.0) Gecko/20100101 Firefox/135.0" version="26.0.14">
  <diagram name="Page-1" id="XQ18JOfCBgQ92fmvsr47">
    <mxGraphModel dx="880" dy="462" grid="1" gridSize="10" guides="1" tooltips="1" connect="1" arrows="1" fold="1" page="1" pageScale="1" pageWidth="850" pageHeight="1100" math="0" shadow="0">
      <root>
        <mxCell id="0" />
        <mxCell id="1" parent="0" />
        <mxCell id="Hn9N9CY554Po5QTcIpjn-26" value="Input/Output" style="rounded=1;whiteSpace=wrap;html=1;verticalAlign=top;arcSize=5;fillColor=#fff2cc;strokeColor=#d6b656;" vertex="1" parent="1">
          <mxGeometry x="560" y="160" width="170" height="280" as="geometry" />
        </mxCell>
        <mxCell id="Hn9N9CY554Po5QTcIpjn-1" value="&lt;div&gt;Display&lt;/div&gt;&lt;div&gt;(16x4 LCD)&lt;/div&gt;" style="rounded=1;whiteSpace=wrap;html=1;fillColor=#ffe6cc;strokeColor=#d79b00;" vertex="1" parent="1">
          <mxGeometry x="585" y="190" width="120" height="60" as="geometry" />
        </mxCell>
        <mxCell id="Hn9N9CY554Po5QTcIpjn-2" value="3 -button Input" style="rounded=1;whiteSpace=wrap;html=1;fillColor=#ffe6cc;strokeColor=#d79b00;" vertex="1" parent="1">
          <mxGeometry x="585" y="340" width="120" height="60" as="geometry" />
        </mxCell>
        <mxCell id="Hn9N9CY554Po5QTcIpjn-3" value="&lt;div&gt;Diagnostics&lt;/div&gt;&lt;div&gt;LEDs&lt;/div&gt;" style="rounded=1;whiteSpace=wrap;html=1;fillColor=#ffe6cc;strokeColor=#d79b00;" vertex="1" parent="1">
          <mxGeometry x="585" y="255" width="120" height="60" as="geometry" />
        </mxCell>
        <mxCell id="Hn9N9CY554Po5QTcIpjn-4" value="Energy Meter" style="rounded=1;whiteSpace=wrap;html=1;verticalAlign=top;fillColor=#f8cecc;strokeColor=#b85450;arcSize=5;" vertex="1" parent="1">
          <mxGeometry x="170" y="151" width="380" height="80" as="geometry" />
        </mxCell>
        <mxCell id="Hn9N9CY554Po5QTcIpjn-5" value="&lt;div&gt;Control Unit&lt;/div&gt;&lt;div&gt;&lt;br&gt;&lt;/div&gt;" style="rounded=1;whiteSpace=wrap;html=1;verticalAlign=top;fillColor=#fff2cc;strokeColor=#d6b656;arcSize=8;" vertex="1" parent="1">
          <mxGeometry x="170" y="240" width="380" height="80" as="geometry" />
        </mxCell>
        <mxCell id="Hn9N9CY554Po5QTcIpjn-6" value="Communication Unit" style="rounded=1;whiteSpace=wrap;html=1;verticalAlign=top;arcSize=5;fillColor=#d5e8d4;strokeColor=#82b366;" vertex="1" parent="1">
          <mxGeometry x="170" y="330" width="380" height="110" as="geometry" />
        </mxCell>
        <mxCell id="Hn9N9CY554Po5QTcIpjn-7" value="LoRA" style="rounded=1;whiteSpace=wrap;html=1;fillColor=#ffe6cc;strokeColor=#d79b00;" vertex="1" parent="1">
          <mxGeometry x="190" y="400" width="60" height="30" as="geometry" />
        </mxCell>
        <mxCell id="Hn9N9CY554Po5QTcIpjn-8" value="WIFI" style="rounded=1;whiteSpace=wrap;html=1;fillColor=#ffe6cc;strokeColor=#d79b00;" vertex="1" parent="1">
          <mxGeometry x="260" y="400" width="60" height="30" as="geometry" />
        </mxCell>
        <mxCell id="Hn9N9CY554Po5QTcIpjn-10" value="Bluetooth" style="rounded=1;whiteSpace=wrap;html=1;fillColor=#ffe6cc;strokeColor=#d79b00;" vertex="1" parent="1">
          <mxGeometry x="330" y="400" width="60" height="30" as="geometry" />
        </mxCell>
        <mxCell id="Hn9N9CY554Po5QTcIpjn-12" value="IR" style="rounded=1;whiteSpace=wrap;html=1;fillColor=#ffe6cc;strokeColor=#d79b00;" vertex="1" parent="1">
          <mxGeometry x="400" y="400" width="60" height="30" as="geometry" />
        </mxCell>
        <mxCell id="Hn9N9CY554Po5QTcIpjn-13" value="Propriety" style="rounded=1;whiteSpace=wrap;html=1;fillColor=#f8cecc;strokeColor=#b85450;dashed=1;" vertex="1" parent="1">
          <mxGeometry x="470" y="400" width="60" height="30" as="geometry" />
        </mxCell>
        <mxCell id="Hn9N9CY554Po5QTcIpjn-15" value="Voltage Sense" style="rounded=1;whiteSpace=wrap;html=1;fillColor=#dae8fc;strokeColor=#6c8ebf;" vertex="1" parent="1">
          <mxGeometry x="260" y="200" width="60" height="30" as="geometry" />
        </mxCell>
        <mxCell id="Hn9N9CY554Po5QTcIpjn-18" value="Current Sencse" style="rounded=1;whiteSpace=wrap;html=1;fillColor=#e1d5e7;strokeColor=#9673a6;" vertex="1" parent="1">
          <mxGeometry x="190" y="200" width="60" height="30" as="geometry" />
        </mxCell>
        <mxCell id="Hn9N9CY554Po5QTcIpjn-19" value="ASIC DSP Unit" style="rounded=1;whiteSpace=wrap;html=1;fillColor=#ffe6cc;strokeColor=#d79b00;" vertex="1" parent="1">
          <mxGeometry x="340" y="190" width="60" height="40" as="geometry" />
        </mxCell>
        <mxCell id="Hn9N9CY554Po5QTcIpjn-20" value="Power Supply" style="rounded=1;whiteSpace=wrap;html=1;verticalAlign=top;fillColor=#f8cecc;strokeColor=#b85450;arcSize=7;" vertex="1" parent="1">
          <mxGeometry x="170" y="80" width="560" height="60" as="geometry" />
        </mxCell>
        <mxCell id="Hn9N9CY554Po5QTcIpjn-24" value="ASIC DSP Unit" style="rounded=1;whiteSpace=wrap;html=1;fillColor=#ffe6cc;strokeColor=#d79b00;" vertex="1" parent="1">
          <mxGeometry x="200" y="270" width="60" height="40" as="geometry" />
        </mxCell>
        <mxCell id="Hn9N9CY554Po5QTcIpjn-25" value="ESP32" style="rounded=1;whiteSpace=wrap;html=1;fillColor=#ffe6cc;strokeColor=#d79b00;" vertex="1" parent="1">
          <mxGeometry x="410" y="265" width="120" height="40" as="geometry" />
        </mxCell>
        <mxCell id="Hn9N9CY554Po5QTcIpjn-27" value="ISP header" style="rounded=1;whiteSpace=wrap;html=1;dashed=1;" vertex="1" parent="1">
          <mxGeometry x="585" y="410" width="75" height="25" as="geometry" />
        </mxCell>
        <mxCell id="Hn9N9CY554Po5QTcIpjn-28" value="Input/Output Soft" style="rounded=1;whiteSpace=wrap;html=1;verticalAlign=top;arcSize=5;fillColor=#fff2cc;strokeColor=#d6b656;" vertex="1" parent="1">
          <mxGeometry x="560" y="560" width="170" height="280" as="geometry" />
        </mxCell>
        <mxCell id="Hn9N9CY554Po5QTcIpjn-29" value="&lt;div&gt;Display&lt;/div&gt;&lt;div&gt;(16x4 LCD)&lt;/div&gt;" style="rounded=1;whiteSpace=wrap;html=1;fillColor=#ffe6cc;strokeColor=#d79b00;" vertex="1" parent="1">
          <mxGeometry x="585" y="590" width="120" height="60" as="geometry" />
        </mxCell>
        <mxCell id="Hn9N9CY554Po5QTcIpjn-30" value="3 -button Input system" style="rounded=1;whiteSpace=wrap;html=1;fillColor=#ffe6cc;strokeColor=#d79b00;" vertex="1" parent="1">
          <mxGeometry x="585" y="740" width="120" height="60" as="geometry" />
        </mxCell>
        <mxCell id="Hn9N9CY554Po5QTcIpjn-31" value="&lt;div&gt;Diagnostics&lt;/div&gt;&lt;div&gt;LEDs&lt;/div&gt;" style="rounded=1;whiteSpace=wrap;html=1;fillColor=#ffe6cc;strokeColor=#d79b00;" vertex="1" parent="1">
          <mxGeometry x="585" y="655" width="120" height="60" as="geometry" />
        </mxCell>
        <mxCell id="Hn9N9CY554Po5QTcIpjn-32" value="Energy Meter" style="rounded=1;whiteSpace=wrap;html=1;verticalAlign=top;fillColor=#f8cecc;strokeColor=#b85450;arcSize=5;" vertex="1" parent="1">
          <mxGeometry x="170" y="551" width="380" height="80" as="geometry" />
        </mxCell>
        <mxCell id="Hn9N9CY554Po5QTcIpjn-33" value="&lt;div&gt;Control Software&lt;/div&gt;&lt;div&gt;&lt;br&gt;&lt;/div&gt;" style="rounded=1;whiteSpace=wrap;html=1;verticalAlign=top;fillColor=#fff2cc;strokeColor=#d6b656;arcSize=8;" vertex="1" parent="1">
          <mxGeometry x="170" y="640" width="380" height="80" as="geometry" />
        </mxCell>
        <mxCell id="Hn9N9CY554Po5QTcIpjn-34" value="Encyption" style="rounded=1;whiteSpace=wrap;html=1;verticalAlign=top;arcSize=5;fillColor=#d5e8d4;strokeColor=#82b366;" vertex="1" parent="1">
          <mxGeometry x="170" y="730" width="380" height="110" as="geometry" />
        </mxCell>
        <mxCell id="Hn9N9CY554Po5QTcIpjn-35" value="LoRA" style="rounded=1;whiteSpace=wrap;html=1;fillColor=#ffe6cc;strokeColor=#d79b00;" vertex="1" parent="1">
          <mxGeometry x="190" y="800" width="60" height="30" as="geometry" />
        </mxCell>
        <mxCell id="Hn9N9CY554Po5QTcIpjn-36" value="WIFI" style="rounded=1;whiteSpace=wrap;html=1;fillColor=#ffe6cc;strokeColor=#d79b00;" vertex="1" parent="1">
          <mxGeometry x="260" y="800" width="60" height="30" as="geometry" />
        </mxCell>
        <mxCell id="Hn9N9CY554Po5QTcIpjn-37" value="Bluetooth" style="rounded=1;whiteSpace=wrap;html=1;fillColor=#ffe6cc;strokeColor=#d79b00;" vertex="1" parent="1">
          <mxGeometry x="330" y="800" width="60" height="30" as="geometry" />
        </mxCell>
        <mxCell id="Hn9N9CY554Po5QTcIpjn-38" value="IR" style="rounded=1;whiteSpace=wrap;html=1;fillColor=#ffe6cc;strokeColor=#d79b00;" vertex="1" parent="1">
          <mxGeometry x="400" y="800" width="60" height="30" as="geometry" />
        </mxCell>
        <mxCell id="Hn9N9CY554Po5QTcIpjn-39" value="Propriety" style="rounded=1;whiteSpace=wrap;html=1;fillColor=#f8cecc;strokeColor=#b85450;dashed=1;" vertex="1" parent="1">
          <mxGeometry x="470" y="800" width="60" height="30" as="geometry" />
        </mxCell>
        <mxCell id="Hn9N9CY554Po5QTcIpjn-40" value="Voltage Sense" style="rounded=1;whiteSpace=wrap;html=1;fillColor=#dae8fc;strokeColor=#6c8ebf;" vertex="1" parent="1">
          <mxGeometry x="260" y="600" width="60" height="30" as="geometry" />
        </mxCell>
        <mxCell id="Hn9N9CY554Po5QTcIpjn-41" value="Current Sencse" style="rounded=1;whiteSpace=wrap;html=1;fillColor=#e1d5e7;strokeColor=#9673a6;" vertex="1" parent="1">
          <mxGeometry x="190" y="600" width="60" height="30" as="geometry" />
        </mxCell>
        <mxCell id="Hn9N9CY554Po5QTcIpjn-42" value="ASIC DSP Unit" style="rounded=1;whiteSpace=wrap;html=1;fillColor=#ffe6cc;strokeColor=#d79b00;" vertex="1" parent="1">
          <mxGeometry x="340" y="590" width="60" height="40" as="geometry" />
        </mxCell>
        <mxCell id="Hn9N9CY554Po5QTcIpjn-43" value="Software" style="rounded=1;whiteSpace=wrap;html=1;verticalAlign=top;fillColor=#f8cecc;strokeColor=#b85450;arcSize=7;" vertex="1" parent="1">
          <mxGeometry x="170" y="480" width="560" height="60" as="geometry" />
        </mxCell>
        <mxCell id="Hn9N9CY554Po5QTcIpjn-44" value="logging" style="rounded=1;whiteSpace=wrap;html=1;fillColor=#ffe6cc;strokeColor=#d79b00;" vertex="1" parent="1">
          <mxGeometry x="200" y="670" width="60" height="40" as="geometry" />
        </mxCell>
        <mxCell id="Hn9N9CY554Po5QTcIpjn-45" value="&lt;div&gt;metering&lt;/div&gt;" style="rounded=1;whiteSpace=wrap;html=1;fillColor=#ffe6cc;strokeColor=#d79b00;" vertex="1" parent="1">
          <mxGeometry x="410" y="665" width="120" height="40" as="geometry" />
        </mxCell>
        <mxCell id="Hn9N9CY554Po5QTcIpjn-46" value="Programmer" style="rounded=1;whiteSpace=wrap;html=1;dashed=1;" vertex="1" parent="1">
          <mxGeometry x="585" y="810" width="75" height="25" as="geometry" />
        </mxCell>
      </root>
    </mxGraphModel>
  </diagram>
</mxfile>
